<svg xmlns="http://www.w3.org/2000/svg" xmlns:xlink="http://www.w3.org/1999/xlink" version="1.1" x="0px" y="0px" viewBox="0 0 100 125" enable-background="new 0 0 100 100" xml:space="preserve"><g><path d="M87.1,69.3c0,2.9-2.1,6.5-4.6,7.9L54.6,93.1c-2.5,1.4-6.7,1.4-9.2,0L17.5,77.2c-2.5-1.4-4.6-5-4.6-7.9V11.1   c0-2.9,2.4-5.3,5.3-5.3h63.5c2.9,0,5.3,2.4,5.3,5.3V69.3z M66.4,66.7l-6.2-19.2l16.4-11.9l-20.2,0L50,16.4l-6.3,19.2l-20.2,0   l16.4,11.9l-6.2,19.2L50,54.8L66.4,66.7z"/></g><text x="0" y="115" fill="#000000" font-size="5px" font-weight="bold" font-family="'Helvetica Neue', Helvetica, Arial-Unicode, Arial, Sans-serif">Created by Mark Shorter</text><text x="0" y="120" fill="#000000" font-size="5px" font-weight="bold" font-family="'Helvetica Neue', Helvetica, Arial-Unicode, Arial, Sans-serif">from the Noun Project</text></svg>