<svg xmlns="http://www.w3.org/2000/svg" xmlns:xlink="http://www.w3.org/1999/xlink" version="1.1" x="0px" y="0px" viewBox="0 0 100 125" enable-background="new 0 0 100 100" xml:space="preserve"><path d="M87.1,11.1v58.2c0,2.9-2.1,6.5-4.6,7.9L54.6,93.1c-2.5,1.4-6.7,1.4-9.2,0L17.5,77.2c-2.5-1.4-4.6-5-4.6-7.9V11.1  c0-2.9,2.4-5.3,5.3-5.3h63.5C84.6,5.8,87.1,8.2,87.1,11.1z M63.2,20H36.8c-5.7,0-10.3,4.6-10.3,10.3c0,5.7,4.6,10.3,10.3,10.3h26.4  c5.6,0,10.3-4.6,10.3-10.3S68.8,20,63.2,20z M44.1,30.3c0,4-3.3,7.3-7.3,7.3s-7.3-3.3-7.3-7.3c0-4,3.3-7.3,7.3-7.3  S44.1,26.2,44.1,30.3z M63.2,43.5H36.8c-5.6,0-10.3,4.6-10.3,10.3S31.2,64,36.8,64h26.4c5.6,0,10.3-4.6,10.3-10.3  S68.8,43.5,63.2,43.5z M36.8,61.1c-4,0-7.3-3.3-7.3-7.3c0-4,3.3-7.3,7.3-7.3H56c-1.9,1.9-3.1,4.5-3.1,7.3c0,2.9,1.2,5.5,3.1,7.3  H36.8z M63.2,61.1c-4,0-7.3-3.3-7.3-7.3c0-4,3.3-7.3,7.3-7.3s7.3,3.3,7.3,7.3C70.5,57.8,67.2,61.1,63.2,61.1z"/></svg>
