<svg xmlns="http://www.w3.org/2000/svg" xmlns:xlink="http://www.w3.org/1999/xlink" version="1.1" x="0px" y="0px" viewBox="0 0 100 125" enable-background="new 0 0 100 100" xml:space="preserve"><path d="M81.7,5.8H18.2c-2.9,0-5.3,2.4-5.3,5.3v58.2c0,2.9,2.1,6.5,4.6,7.9l27.9,15.9c2.5,1.4,6.7,1.4,9.2,0l27.9-15.9  c2.5-1.4,4.6-5,4.6-7.9V11.1C87.1,8.2,84.6,5.8,81.7,5.8z M25.6,66.4l5.6-12.2l6.6,6.6L25.6,66.4z M40,58.7L33.3,52l25.6-25.6  l6.6,6.6L40,58.7z M67.8,30.8l-6.6-6.6l6.6-6.6l6.6,6.6L67.8,30.8z M58.9,30.8l2.2,2.2L40,54.2L37.8,52L58.9,30.8z"/></svg>
