<svg xmlns="http://www.w3.org/2000/svg" xmlns:xlink="http://www.w3.org/1999/xlink" version="1.1" x="0px" y="0px" viewBox="0 0 100 125" enable-background="new 0 0 100 100" xml:space="preserve"><path d="M87.1,69.3c0,2.9-2.1,6.5-4.6,7.9L54.6,93.1c-2.5,1.4-6.7,1.4-9.2,0L17.5,77.2c-2.5-1.4-4.6-5-4.6-7.9V11.1  c0-2.9,2.4-5.3,5.3-5.3h63.5c2.9,0,5.4,2.4,5.4,5.3V69.3L87.1,69.3z M50,21.7c-6.2-6.2-16.4-6.2-22.7,0l0,0  c-6.2,6.2-6.2,16.4,0,22.7L50,67l22.7-22.7c6.2-6.2,6.2-16.4,0-22.7l0,0C66.4,15.4,56.2,15.4,50,21.7"/></svg>
