<svg xmlns="http://www.w3.org/2000/svg" xmlns:xlink="http://www.w3.org/1999/xlink" version="1.1" x="0px" y="0px" viewBox="0 0 100 125" enable-background="new 0 0 100 100" xml:space="preserve"><path d="M87.1,11.1v58.2c0,2.9-2.1,6.5-4.6,7.9L54.6,93.1c-2.5,1.4-6.7,1.4-9.2,0L17.5,77.2c-2.5-1.4-4.6-5-4.6-7.9V11.1  c0-2.9,2.4-5.3,5.3-5.3h63.5C84.6,5.8,87.1,8.2,87.1,11.1z M75,45.1l0-6.2l-7.1-2.4c-0.4-1.2-0.8-2.3-1.4-3.3l3.3-6.7l-4.4-4.4  l-6.7,3.3c-1.1-0.6-2.2-1-3.3-1.4L53.1,17h-6.3l-2.4,7.1c-1.2,0.4-2.3,0.8-3.3,1.4l-6.7-3.3l-4.4,4.4l3.3,6.7c-0.6,1-1,2.2-1.4,3.3  L25,38.9v6.3l7.1,2.4c0.4,1.2,0.8,2.3,1.4,3.3l-3.3,6.7l4.4,4.4l6.7-3.3c1.1,0.6,2.2,1,3.3,1.4l2.4,7.1h6.3l2.4-7.1  c1.2-0.4,2.3-0.8,3.3-1.4l6.7,3.3l4.4-4.4l-3.3-6.7c0.6-1.1,1-2.2,1.4-3.3L75,45.1z M50,54.3c-6.9,0-12.5-5.6-12.5-12.5  c0-6.9,5.6-12.5,12.5-12.5c6.9,0,12.5,5.6,12.5,12.5C62.5,48.7,56.9,54.3,50,54.3z"/></svg>
