<?xml version="1.0" encoding="UTF-8" standalone="no"?>
<!-- Created with Inkscape (http://www.inkscape.org/) -->
<svg xmlns:svg="http://www.w3.org/2000/svg" xmlns="http://www.w3.org/2000/svg" version="1.0" width="600" height="521" id="svg2">
  <defs id="defs4"/>
  <g id="layer1">
    <path d="M 25.556904,181.24351 C 25.559397,217.70783 26.8076,220.64466 48.107114,220.5811 C 69.176149,220.51593 485.02517,220.07625 485.33062,220.07999 C 501.60624,220.28225 505.95354,216.32602 505.87636,188.50969 C 505.47315,42.934967 413.17215,9.9284822 264.08801,10.864154 C 136.30486,11.666139 25.547142,40.413678 25.556904,181.24351 z " style="fill:#1404bd;fill-opacity:1;fill-rule:evenodd;stroke:none" id="back"/>
    <path d="M 127.78452,186.25467 L 113.33675,142.79114 L 67.734261,142.6256 L 104.60592,115.45397 L 90.671418,72.032279 L 127.90714,98.702821 L 164.89763,72.032277 L 151.0389,115.6872 L 187.83479,142.62559 L 142.03391,142.93528 L 127.78452,186.25467 z " transform="translate(-0.501116, -1.75391)" style="fill:#ffffff;fill-opacity:1;fill-rule:evenodd;stroke:none" id="star1"/>
    <path d="M 127.78452,186.25467 L 113.33675,142.79114 L 67.734261,142.6256 L 104.60592,115.45397 L 90.671418,72.032279 L 127.90714,98.702821 L 164.89763,72.032277 L 151.0389,115.6872 L 187.83479,142.62559 L 142.03391,142.93528 L 127.78452,186.25467 z " transform="translate(139.31, -2.27102)" style="fill:#ffffff;fill-opacity:1;fill-rule:evenodd;stroke:none" id="star2"/>
    <path d="M 127.78452,186.25467 L 113.33675,142.79114 L 67.734261,142.6256 L 104.60592,115.45397 L 90.671418,72.032279 L 127.90714,98.702821 L 164.89763,72.032277 L 151.0389,115.6872 L 187.83479,142.62559 L 142.03391,142.93528 L 127.78452,186.25467 z " transform="translate(278.871, -1.76991)" style="fill:#ffffff;fill-opacity:1;fill-rule:evenodd;stroke:none" id="star3"/>
    <path d="M 44.599303,235.11346 C 31.424493,235.03797 26.809694,238.62127 26.809693,249.89637 C 26.809692,273.21979 25.044821,453.35724 26.05802,482.66465 C 26.456401,494.18805 32.82382,497.58604 41.342051,497.69812 C 60.386098,497.9487 107.74207,498.57236 125.27894,498.19923 C 137.30572,497.94867 142.4834,492.19928 143.06855,474.89735 C 143.61714,458.67635 142.81109,431.79733 143.31911,407.74784 C 143.49041,399.63838 146.32581,393.7166 154.59422,393.46604 C 175.55076,392.83098 256.10246,392.82034 272.10586,393.21548 C 292.40105,393.7166 295.6583,393.46604 296.15942,414.5129 C 296.75492,439.52399 296.66053,454.85272 295.90886,474.14567 C 295.10578,494.75812 301.92225,496.69588 312.94679,496.94644 C 329.22885,497.31649 366.81713,496.41796 385.60858,496.69589 C 410.59327,497.0543 410.12766,489.44084 410.41381,456.85718 C 410.54301,442.82429 410.43448,393.94416 409.91269,371.6675 C 409.78308,366.13402 412.66935,362.20879 416.4272,362.1463 C 431.74639,361.89573 434.93584,401.99116 438.72685,422.02964 C 452.78071,496.31543 485.26722,505.7904 514.89645,505.96653 C 552.03812,506.19922 587.42875,475.40626 587.55824,412.00732 C 587.57773,402.46147 585.55377,394.21772 578.53815,394.21771 C 547.21024,394.21768 565.50466,394.67694 548.97232,394.21771 C 540.20279,393.96715 532.4355,395.21994 534.18941,408.75007 C 535.94331,422.28019 536.7143,447.49947 519.65704,448.08765 C 512.39087,448.33821 506.62804,443.0765 506.62804,428.29358 C 506.62804,413.51067 505.58692,262.91649 505.12469,250.8986 C 504.87413,244.38409 504.62357,234.61234 491.59456,234.8629 C 475.31156,235.18856 71.013912,235.25665 44.599303,235.11346 z " style="fill:#de0100;fill-opacity:1;fill-rule:evenodd;stroke:none" id="trunk"/>
  </g>
</svg>